# xmcd CD database file
#
# Track frame offsets:
#	197
#	17075
#	33912
#	61200
#
# Disc length: 1180 seconds
#
# Revision: 3
# Processed by: cddbd v1.4PL0 Copyright (c) Steve Scherf et al.
# Submitted via: CDex 1.40Release
#
DISCID=27049a04
DTITLE=Nice N Easy Experience - Spaceman
DYEAR=1996
DGENRE=Jazz
TTITLE0=Spaceman Radio Edit
TTITLE1=Rainy Day Sunshine
TTITLE2=Spaceman Instrumental
TTITLE3=Spaceman Marcos Mood Album Version
EXTD=YEAR: 1996 ID3G: 8
EXTT0=
EXTT1=
EXTT2=
EXTT3=
PLAYORDER=
